{
  "accessors": [
    {
      "bufferView": 2,
      "componentType": 5126,
      "count": 6214,
      "max": [
        2.6545000076293945,
        1.6749000549316406,
        1.6544300317764282
      ],
      "min": [
        -2.6857800483703613,
        -21.76310920715332,
        -1.418529987335205
      ],
      "type": "VEC3"
    },
    {
      "bufferView": 2,
      "byteOffset": 74568,
      "componentType": 5126,
      "count": 6214,
      "max": [
        0.9999056458473206,
        0.9993492960929871,
        1.0
      ],
      "min": [
        -0.9999056458473206,
        -0.9978948831558228,
        -0.9994353652000427
      ],
      "type": "VEC3"
    },
    {
      "bufferView": 2,
      "byteOffset": 149136,
      "componentType": 5126,
      "count": 6214,
      "max": [
        1.0,
        1.0,
        1.0
      ],
      "min": [
        0.9960784316062927,
        0.9960784316062927,
        0.9960784316062927
      ],
      "type": "VEC3"
    },
    {
      "bufferView": 0,
      "componentType": 5125,
      "count": 36228,
      "type": "SCALAR"
    },
    {
      "bufferView": 2,
      "byteOffset": 223704,
      "componentType": 5126,
      "count": 1242,
      "max": [
        1.5466500520706177,
        1.8992300033569336,
        2.1076900959014893
      ],
      "min": [
        -1.5466500520706177,
        -2.223939895629883,
        -1.4018700122833252
      ],
      "type": "VEC3"
    },
    {
      "bufferView": 2,
      "byteOffset": 238608,
      "componentType": 5126,
      "count": 1242,
      "max": [
        0.9995079040527344,
        0.9973068833351135,
        0.9999993443489075
      ],
      "min": [
        -0.9995079040527344,
        -0.999913215637207,
        -0.9996776580810547
      ],
      "type": "VEC3"
    },
    {
      "bufferView": 0,
      "byteOffset": 144912,
      "componentType": 5125,
      "count": 7440,
      "type": "SCALAR"
    },
    {
      "bufferView": 2,
      "byteOffset": 253512,
      "componentType": 5126,
      "count": 4652,
      "max": [
        4.0256500244140625,
        3.4508800506591797,
        1.5929100513458252
      ],
      "min": [
        -4.0256500244140625,
        -4.666999816894531,
        -2.025399923324585
      ],
      "type": "VEC3"
    },
    {
      "bufferView": 2,
      "byteOffset": 309336,
      "componentType": 5126,
      "count": 4652,
      "max": [
        0.9977220296859741,
        0.995956301689148,
        0.9998491406440735
      ],
      "min": [
        -0.9975089430809021,
        -0.9949772357940674,
        -0.9998491406440735
      ],
      "type": "VEC3"
    },
    {
      "bufferView": 2,
      "byteOffset": 365160,
      "componentType": 5126,
      "count": 4652,
      "max": [
        1.0,
        1.0,
        1.0
      ],
      "min": [
        1.0,
        1.0,
        1.0
      ],
      "type": "VEC3"
    },
    {
      "bufferView": 0,
      "byteOffset": 174672,
      "componentType": 5125,
      "count": 27936,
      "type": "SCALAR"
    },
    {
      "bufferView": 2,
      "byteOffset": 420984,
      "componentType": 5126,
      "count": 1479,
      "max": [
        2.216439962387085,
        4.804299831390381,
        1.89028000831604
      ],
      "min": [
        -2.216439962387085,
        -7.0764899253845215,
        -1.3055299520492554
      ],
      "type": "VEC3"
    },
    {
      "bufferView": 2,
      "byteOffset": 438732,
      "componentType": 5126,
      "count": 1479,
      "max": [
        0.9998539090156555,
        0.6735270619392395,
        0.9795686602592468
      ],
      "min": [
        -0.9998539090156555,
        -0.9994269013404846,
        -0.9977995157241821
      ],
      "type": "VEC3"
    },
    {
      "bufferView": 2,
      "byteOffset": 456480,
      "componentType": 5126,
      "count": 1479,
      "max": [
        1.0,
        1.0,
        1.0
      ],
      "min": [
        1.0,
        1.0,
        1.0
      ],
      "type": "VEC3"
    },
    {
      "bufferView": 0,
      "byteOffset": 286416,
      "componentType": 5125,
      "count": 8580,
      "type": "SCALAR"
    },
    {
      "bufferView": 2,
      "byteOffset": 474228,
      "componentType": 5126,
      "count": 50,
      "max": [
        2.457240104675293,
        -0.5578600168228149,
        0.8367800116539001
      ],
      "min": [
        -2.457240104675293,
        -1.2461199760437012,
        -0.6399099826812744
      ],
      "type": "VEC3"
    },
    {
      "bufferView": 2,
      "byteOffset": 474828,
      "componentType": 5126,
      "count": 50,
      "max": [
        0.6805139780044556,
        -0.730815052986145,
        0.3791976273059845
      ],
      "min": [
        -0.6805139780044556,
        -0.998042106628418,
        -0.3476768136024475
      ],
      "type": "VEC3"
    },
    {
      "bufferView": 1,
      "componentType": 5126,
      "count": 50,
      "max": [
        1.1178699731826782,
        0.7851300239562988
      ],
      "min": [
        0.033879999071359634,
        0.051739998161792755
      ],
      "type": "VEC2"
    },
    {
      "bufferView": 0,
      "byteOffset": 320736,
      "componentType": 5125,
      "count": 192,
      "type": "SCALAR"
    },
    {
      "bufferView": 2,
      "byteOffset": 475428,
      "componentType": 5126,
      "count": 148,
      "max": [
        3.990269899368286,
        8.540149688720703,
        1.8438999652862549
      ],
      "min": [
        -3.990269899368286,
        -1.4108599424362183,
        -1.0
      ],
      "type": "VEC3"
    },
    {
      "bufferView": 2,
      "byteOffset": 477204,
      "componentType": 5126,
      "count": 148,
      "max": [
        0.9992116689682007,
        0.9849501848220825,
        0.9997904896736145
      ],
      "min": [
        -0.9992116689682007,
        -0.9661698937416077,
        -1.0
      ],
      "type": "VEC3"
    },
    {
      "bufferView": 0,
      "byteOffset": 321504,
      "componentType": 5125,
      "count": 864,
      "type": "SCALAR"
    }
  ],
  "asset": {
    "extras": {
      "author": "U-like (https://sketchfab.com/ulikebot)",
      "license": "CC-BY-4.0 (http://creativecommons.org/licenses/by/4.0/)",
      "source": "https://sketchfab.com/3d-models/artist-girl-9b0c258149ed4efbad4036cfdf27f6b9",
      "title": "Artist Girl"
    },
    "generator": "Sketchfab-12.67.0",
    "version": "2.0"
  },
  "bufferViews": [
    {
      "buffer": 0,
      "byteLength": 324960,
      "name": "floatBufferViews",
      "target": 34963
    },
    {
      "buffer": 0,
      "byteLength": 400,
      "byteOffset": 324960,
      "byteStride": 8,
      "name": "floatBufferViews",
      "target": 34962
    },
    {
      "buffer": 0,
      "byteLength": 478980,
      "byteOffset": 325360,
      "byteStride": 12,
      "name": "floatBufferViews",
      "target": 34962
    }
  ],
  "buffers": [
    {
      "byteLength": 804340,
      "uri": "scene.bin"
    }
  ],
  "images": [
    {
      "uri": "textures/Material.007_baseColor.png"
    }
  ],
  "materials": [
    {
      "doubleSided": true,
      "name": "Root",
      "pbrMetallicRoughness": {
        "baseColorFactor": [
          0.14430706441529761,
          0.26360478392714376,
          1.0,
          1.0
        ],
        "metallicFactor": 0.5487804878048781,
        "roughnessFactor": 0.573170731707317
      }
    },
    {
      "doubleSided": true,
      "name": "Material.007",
      "pbrMetallicRoughness": {
        "baseColorTexture": {
          "index": 0
        },
        "metallicFactor": 0.0,
        "roughnessFactor": 0.0
      }
    },
    {
      "doubleSided": true,
      "name": "Material.004",
      "pbrMetallicRoughness": {
        "baseColorFactor": [
          0.052860647023180246,
          0.022173884793387385,
          0.03560131487502032,
          1.0
        ],
        "roughnessFactor": 0.3719512195121951
      }
    },
    {
      "doubleSided": true,
      "name": "Material.003",
      "pbrMetallicRoughness": {
        "baseColorFactor": [
          0.08650046203654964,
          0.191201682740791,
          0.3049873140698859,
          1.0
        ],
        "metallicFactor": 0.0
      }
    },
    {
      "doubleSided": true,
      "name": "Material.001",
      "pbrMetallicRoughness": {
        "baseColorFactor": [
          0.11443537382697373,
          0.030713443732993628,
          0.06480326669290577,
          1.0
        ],
        "metallicFactor": 0.0
      }
    },
    {
      "doubleSided": true,
      "name": "Material.002",
      "pbrMetallicRoughness": {
        "baseColorFactor": [
          0.979986380953846,
          0.40779519007970505,
          0.41703832671456326,
          1.0
        ],
        "metallicFactor": 0.0,
        "roughnessFactor": 0.4146341463414634
      }
    }
  ],
  "meshes": [
    {
      "name": "Circle_0",
      "primitives": [
        {
          "attributes": {
            "COLOR_0": 2,
            "NORMAL": 1,
            "POSITION": 0
          },
          "indices": 3,
          "material": 5,
          "mode": 4
        }
      ]
    },
    {
      "name": "Circle.001_0",
      "primitives": [
        {
          "attributes": {
            "NORMAL": 5,
            "POSITION": 4
          },
          "indices": 6,
          "material": 4,
          "mode": 4
        }
      ]
    },
    {
      "name": "Circle.002_0",
      "primitives": [
        {
          "attributes": {
            "COLOR_0": 9,
            "NORMAL": 8,
            "POSITION": 7
          },
          "indices": 10,
          "material": 3,
          "mode": 4
        }
      ]
    },
    {
      "name": "Circle.003_0",
      "primitives": [
        {
          "attributes": {
            "COLOR_0": 13,
            "NORMAL": 12,
            "POSITION": 11
          },
          "indices": 14,
          "material": 2,
          "mode": 4
        }
      ]
    },
    {
      "name": "Cube_0",
      "primitives": [
        {
          "attributes": {
            "NORMAL": 16,
            "POSITION": 15,
            "TEXCOORD_0": 17
          },
          "indices": 18,
          "material": 1,
          "mode": 4
        }
      ]
    },
    {
      "name": "Cube.001_0",
      "primitives": [
        {
          "attributes": {
            "NORMAL": 20,
            "POSITION": 19
          },
          "indices": 21,
          "material": 0,
          "mode": 4
        }
      ]
    }
  ],
  "nodes": [
    {
      "children": [
        1
      ],
      "matrix": [
        1.0,
        0.0,
        0.0,
        0.0,
        0.0,
        2.220446049250313e-16,
        -1.0,
        0.0,
        0.0,
        1.0,
        2.220446049250313e-16,
        0.0,
        0.0,
        0.0,
        0.0,
        1.0
      ],
      "name": "Sketchfab_model"
    },
    {
      "children": [
        2,
        4,
        6,
        8,
        10,
        12,
        14
      ],
      "name": "Root"
    },
    {
      "children": [
        3
      ],
      "matrix": [
        -0.11546000000000002,
        0.4969700000000001,
        0.86006,
        0.0,
        -0.9510700000000001,
        -0.30512000000000006,
        0.048630000000000013,
        0.0,
        0.28659,
        -0.81236,
        0.50788,
        0.0,
        -5.558979999999999,
        -4.45105,
        3.5545999999999998,
        1.0
      ],
      "name": "Lamp"
    },
    {
      "name": "Lamp"
    },
    {
      "children": [
        5
      ],
      "matrix": [
        0.17052,
        0.0,
        0.0,
        0.0,
        0.0,
        -0.0,
        0.17052,
        0.0,
        0.0,
        -0.17052,
        -0.0,
        0.0,
        -2.49746,
        0.04869000000000001,
        1.6680700000000002,
        1.0
      ],
      "name": "Circle"
    },
    {
      "mesh": 0,
      "name": "Circle_0"
    },
    {
      "children": [
        7
      ],
      "matrix": [
        0.17052,
        0.0,
        0.0,
        0.0,
        0.0,
        -0.0,
        0.17052,
        0.0,
        0.0,
        -0.17052,
        -0.0,
        0.0,
        -2.49746,
        0.14216,
        1.85903,
        1.0
      ],
      "name": "Circle.001"
    },
    {
      "mesh": 1,
      "name": "Circle.001_0"
    },
    {
      "children": [
        9
      ],
      "matrix": [
        0.17052,
        0.0,
        0.0,
        0.0,
        0.0,
        -0.0,
        0.17052,
        0.0,
        0.0,
        -0.17052,
        -0.0,
        0.0,
        -2.49746,
        0.12849000000000002,
        0.7486700000000002,
        1.0
      ],
      "name": "Circle.002"
    },
    {
      "mesh": 2,
      "name": "Circle.002_0"
    },
    {
      "children": [
        11
      ],
      "matrix": [
        0.17052,
        0.0,
        0.0,
        0.0,
        0.0,
        -0.0,
        0.17052,
        0.0,
        0.0,
        -0.17052,
        -0.0,
        0.0,
        -2.49746,
        0.22430000000000003,
        -0.5342,
        1.0
      ],
      "name": "Circle.003"
    },
    {
      "mesh": 3,
      "name": "Circle.003_0"
    },
    {
      "children": [
        13
      ],
      "matrix": [
        0.06392000000000002,
        0.0,
        0.0,
        0.0,
        0.0,
        0.06392000000000002,
        0.0,
        0.0,
        0.0,
        0.0,
        0.06392000000000002,
        0.0,
        -2.49792,
        -0.03493000000000001,
        1.6960700000000002,
        1.0
      ],
      "name": "Cube"
    },
    {
      "mesh": 4,
      "name": "Cube_0"
    },
    {
      "children": [
        15
      ],
      "matrix": [
        0.05023000000000001,
        0.0,
        0.0,
        0.0,
        0.0,
        0.05023000000000001,
        0.0,
        0.0,
        0.0,
        0.0,
        0.05023000000000001,
        0.0,
        -2.49792,
        -0.17269,
        -2.0672800000000002,
        1.0
      ],
      "name": "Cube.001"
    },
    {
      "mesh": 5,
      "name": "Cube.001_0"
    }
  ],
  "samplers": [
    {
      "magFilter": 9729,
      "minFilter": 9987,
      "wrapS": 10497,
      "wrapT": 10497
    }
  ],
  "scene": 0,
  "scenes": [
    {
      "name": "Sketchfab_Scene",
      "nodes": [
        0
      ]
    }
  ],
  "textures": [
    {
      "sampler": 0,
      "source": 0
    }
  ]
}
